<svg width="16" height="16" viewBox="0 0 16 16" fill="none" xmlns="http://www.w3.org/2000/svg">
<path d="M15.8135 8C15.8135 3.75 12.3135 0.25 8.06348 0.25C3.78223 0.25 0.313477 3.75 0.313477 8C0.313477 12.2812 3.78223 15.75 8.06348 15.75C12.3135 15.75 15.8135 12.2812 15.8135 8ZM8.06348 9.5625C8.84473 9.5625 9.50098 10.2188 9.50098 11C9.50098 11.8125 8.84473 12.4375 8.06348 12.4375C7.25098 12.4375 6.62598 11.8125 6.62598 11C6.62598 10.2188 7.25098 9.5625 8.06348 9.5625ZM6.68848 4.40625C6.65723 4.1875 6.84473 4 7.06348 4H9.03223C9.25098 4 9.43848 4.1875 9.40723 4.40625L9.18848 8.65625C9.15723 8.875 9.00098 9 8.81348 9H7.28223C7.09473 9 6.93848 8.875 6.90723 8.65625L6.68848 4.40625Z" fill="#FC6DAB"/>
</svg>
