<svg width="16" height="17" viewBox="0 0 16 17" fill="none" xmlns="http://www.w3.org/2000/svg">
<path fill-rule="evenodd" clip-rule="evenodd" d="M1.53301 4.0362C1.73301 3.8362 1.99967 3.76953 2.26634 3.90286C2.33301 3.90286 2.39967 3.96953 2.46634 4.0362C2.59967 4.16953 2.66634 4.30286 2.66634 4.50286C2.66634 4.70286 2.59967 4.8362 2.46634 4.96953C2.33301 5.10286 2.19967 5.16953 1.99967 5.16953H1.86634C1.828 5.13119 1.81171 5.1149 1.79211 5.10798C1.77763 5.10286 1.76134 5.10286 1.73301 5.10286C1.69967 5.10286 1.68301 5.0862 1.66634 5.06953C1.64967 5.05286 1.63301 5.0362 1.59967 5.0362L1.53301 4.96953C1.49967 4.9362 1.48301 4.90286 1.46634 4.86953C1.44967 4.8362 1.43301 4.80286 1.39967 4.76953C1.33301 4.70286 1.33301 4.56953 1.33301 4.50286C1.33301 4.4362 1.33301 4.30286 1.39967 4.2362C1.39967 4.16953 1.46634 4.10286 1.53301 4.0362ZM5.33301 3.8362C4.93301 3.8362 4.66634 4.10286 4.66634 4.50286C4.66634 4.90286 4.93301 5.16953 5.33301 5.16953H13.9997C14.3997 5.16953 14.6663 4.90286 14.6663 4.50286C14.6663 4.10286 14.3997 3.8362 13.9997 3.8362H5.33301ZM5.33301 7.8362H13.9997C14.3997 7.8362 14.6663 8.10286 14.6663 8.50286C14.6663 8.90286 14.3997 9.16953 13.9997 9.16953H5.33301C4.93301 9.16953 4.66634 8.90286 4.66634 8.50286C4.66634 8.10286 4.93301 7.8362 5.33301 7.8362ZM13.9997 11.8362H5.33301C4.93301 11.8362 4.66634 12.1029 4.66634 12.5029C4.66634 12.9029 4.93301 13.1695 5.33301 13.1695H13.9997C14.3997 13.1695 14.6663 12.9029 14.6663 12.5029C14.6663 12.1029 14.3997 11.8362 13.9997 11.8362ZM2.59967 8.2362C2.59967 8.20286 2.58301 8.1862 2.56634 8.16953C2.54967 8.15286 2.53301 8.1362 2.53301 8.10286C2.53301 8.0362 2.46634 8.0362 2.46634 8.0362C2.26634 7.8362 1.99967 7.76953 1.73301 7.90286C1.69967 7.9362 1.66634 7.95286 1.63301 7.96953C1.59967 7.9862 1.56634 8.00286 1.53301 8.0362L1.46634 8.10286C1.46634 8.1362 1.44967 8.15286 1.43301 8.16953C1.41634 8.1862 1.39967 8.20286 1.39967 8.2362C1.39967 8.26453 1.39967 8.28082 1.39456 8.2953C1.38764 8.3149 1.37134 8.33119 1.33301 8.36953V8.50286C1.33301 8.70286 1.39967 8.8362 1.53301 8.96953C1.66634 9.10286 1.79967 9.16953 1.99967 9.16953C2.19967 9.16953 2.33301 9.10286 2.46634 8.96953C2.59967 8.8362 2.66634 8.70286 2.66634 8.50286V8.36953C2.66634 8.3362 2.64967 8.31953 2.63301 8.30286C2.61634 8.2862 2.59967 8.26953 2.59967 8.2362ZM1.39967 12.2362C1.39967 12.1695 1.46634 12.1029 1.53301 12.0362C1.79967 11.7695 2.19967 11.7695 2.46634 12.0362C2.59967 12.1695 2.66634 12.3029 2.66634 12.5029C2.66634 12.7029 2.59967 12.8362 2.46634 12.9695C2.33301 13.1029 2.19967 13.1695 1.99967 13.1695C1.79967 13.1695 1.66634 13.1029 1.53301 12.9695C1.39967 12.8362 1.33301 12.7029 1.33301 12.5029C1.33301 12.4362 1.33301 12.3029 1.39967 12.2362Z" fill="#2D3137"/>
<mask id="mask0_1419_1260" style="mask-type:alpha" maskUnits="userSpaceOnUse" x="1" y="3" width="14" height="11">
<path fill-rule="evenodd" clip-rule="evenodd" d="M1.53301 4.0362C1.73301 3.8362 1.99967 3.76953 2.26634 3.90286C2.33301 3.90286 2.39967 3.96953 2.46634 4.0362C2.59967 4.16953 2.66634 4.30286 2.66634 4.50286C2.66634 4.70286 2.59967 4.8362 2.46634 4.96953C2.33301 5.10286 2.19967 5.16953 1.99967 5.16953H1.86634C1.828 5.13119 1.81171 5.1149 1.79211 5.10798C1.77763 5.10286 1.76134 5.10286 1.73301 5.10286C1.69967 5.10286 1.68301 5.0862 1.66634 5.06953C1.64967 5.05286 1.63301 5.0362 1.59967 5.0362L1.53301 4.96953C1.49967 4.9362 1.48301 4.90286 1.46634 4.86953C1.44967 4.8362 1.43301 4.80286 1.39967 4.76953C1.33301 4.70286 1.33301 4.56953 1.33301 4.50286C1.33301 4.4362 1.33301 4.30286 1.39967 4.2362C1.39967 4.16953 1.46634 4.10286 1.53301 4.0362ZM5.33301 3.8362C4.93301 3.8362 4.66634 4.10286 4.66634 4.50286C4.66634 4.90286 4.93301 5.16953 5.33301 5.16953H13.9997C14.3997 5.16953 14.6663 4.90286 14.6663 4.50286C14.6663 4.10286 14.3997 3.8362 13.9997 3.8362H5.33301ZM5.33301 7.8362H13.9997C14.3997 7.8362 14.6663 8.10286 14.6663 8.50286C14.6663 8.90286 14.3997 9.16953 13.9997 9.16953H5.33301C4.93301 9.16953 4.66634 8.90286 4.66634 8.50286C4.66634 8.10286 4.93301 7.8362 5.33301 7.8362ZM13.9997 11.8362H5.33301C4.93301 11.8362 4.66634 12.1029 4.66634 12.5029C4.66634 12.9029 4.93301 13.1695 5.33301 13.1695H13.9997C14.3997 13.1695 14.6663 12.9029 14.6663 12.5029C14.6663 12.1029 14.3997 11.8362 13.9997 11.8362ZM2.59967 8.2362C2.59967 8.20286 2.58301 8.1862 2.56634 8.16953C2.54967 8.15286 2.53301 8.1362 2.53301 8.10286C2.53301 8.0362 2.46634 8.0362 2.46634 8.0362C2.26634 7.8362 1.99967 7.76953 1.73301 7.90286C1.69967 7.9362 1.66634 7.95286 1.63301 7.96953C1.59967 7.9862 1.56634 8.00286 1.53301 8.0362L1.46634 8.10286C1.46634 8.1362 1.44967 8.15286 1.43301 8.16953C1.41634 8.1862 1.39967 8.20286 1.39967 8.2362C1.39967 8.26453 1.39967 8.28082 1.39456 8.2953C1.38764 8.3149 1.37134 8.33119 1.33301 8.36953V8.50286C1.33301 8.70286 1.39967 8.8362 1.53301 8.96953C1.66634 9.10286 1.79967 9.16953 1.99967 9.16953C2.19967 9.16953 2.33301 9.10286 2.46634 8.96953C2.59967 8.8362 2.66634 8.70286 2.66634 8.50286V8.36953C2.66634 8.3362 2.64967 8.31953 2.63301 8.30286C2.61634 8.2862 2.59967 8.26953 2.59967 8.2362ZM1.39967 12.2362C1.39967 12.1695 1.46634 12.1029 1.53301 12.0362C1.79967 11.7695 2.19967 11.7695 2.46634 12.0362C2.59967 12.1695 2.66634 12.3029 2.66634 12.5029C2.66634 12.7029 2.59967 12.8362 2.46634 12.9695C2.33301 13.1029 2.19967 13.1695 1.99967 13.1695C1.79967 13.1695 1.66634 13.1029 1.53301 12.9695C1.39967 12.8362 1.33301 12.7029 1.33301 12.5029C1.33301 12.4362 1.33301 12.3029 1.39967 12.2362Z" fill="white"/>
</mask>
<g mask="url(#mask0_1419_1260)">
<rect y="0.5" width="16" height="16" fill="#2D3137"/>
</g>
</svg>
